<svg xmlns="http://www.w3.org/2000/svg" xmlns:xlink="http://www.w3.org/1999/xlink" width="600" height="400" viewBox="0 0 2400 1600">
<defs>
  <clipPath id="clip500">
    <rect x="0" y="0" width="2400" height="1600"></rect>
  </clipPath>
</defs>
<path clip-path="url(#clip500)" d="M0 1600 L2400 1600 L2400 0 L0 0  Z" fill="#ffffff" fill-rule="evenodd" fill-opacity="1"></path>
<defs>
  <clipPath id="clip501">
    <rect x="480" y="0" width="1681" height="1600"></rect>
  </clipPath>
</defs>
<path clip-path="url(#clip500)" d="M222.501 1486.45 L2352.76 1486.45 L2352.76 47.2441 L222.501 47.2441  Z" fill="#ffffff" fill-rule="evenodd" fill-opacity="1"></path>
<defs>
  <clipPath id="clip502">
    <rect x="222" y="47" width="2131" height="1440"></rect>
  </clipPath>
</defs>
<polyline clip-path="url(#clip502)" style="stroke:#000000; stroke-linecap:round; stroke-linejoin:round; stroke-width:2; stroke-opacity:0.1; fill:none" points="262.491,1486.45 262.491,47.2441 "></polyline>
<polyline clip-path="url(#clip502)" style="stroke:#000000; stroke-linecap:round; stroke-linejoin:round; stroke-width:2; stroke-opacity:0.1; fill:none" points="769.985,1486.45 769.985,47.2441 "></polyline>
<polyline clip-path="url(#clip502)" style="stroke:#000000; stroke-linecap:round; stroke-linejoin:round; stroke-width:2; stroke-opacity:0.1; fill:none" points="1277.48,1486.45 1277.48,47.2441 "></polyline>
<polyline clip-path="url(#clip502)" style="stroke:#000000; stroke-linecap:round; stroke-linejoin:round; stroke-width:2; stroke-opacity:0.1; fill:none" points="1784.97,1486.45 1784.97,47.2441 "></polyline>
<polyline clip-path="url(#clip502)" style="stroke:#000000; stroke-linecap:round; stroke-linejoin:round; stroke-width:2; stroke-opacity:0.1; fill:none" points="2292.47,1486.45 2292.47,47.2441 "></polyline>
<polyline clip-path="url(#clip502)" style="stroke:#000000; stroke-linecap:round; stroke-linejoin:round; stroke-width:2; stroke-opacity:0.1; fill:none" points="262.491,1486.45 262.491,47.2441 "></polyline>
<polyline clip-path="url(#clip502)" style="stroke:#000000; stroke-linecap:round; stroke-linejoin:round; stroke-width:2; stroke-opacity:0.1; fill:none" points="769.985,1486.45 769.985,47.2441 "></polyline>
<polyline clip-path="url(#clip502)" style="stroke:#000000; stroke-linecap:round; stroke-linejoin:round; stroke-width:2; stroke-opacity:0.1; fill:none" points="1277.48,1486.45 1277.48,47.2441 "></polyline>
<polyline clip-path="url(#clip502)" style="stroke:#000000; stroke-linecap:round; stroke-linejoin:round; stroke-width:2; stroke-opacity:0.1; fill:none" points="1784.97,1486.45 1784.97,47.2441 "></polyline>
<polyline clip-path="url(#clip502)" style="stroke:#000000; stroke-linecap:round; stroke-linejoin:round; stroke-width:2; stroke-opacity:0.1; fill:none" points="2292.47,1486.45 2292.47,47.2441 "></polyline>
<polyline clip-path="url(#clip502)" style="stroke:#000000; stroke-linecap:round; stroke-linejoin:round; stroke-width:2; stroke-opacity:0.1; fill:none" points="222.501,1412.5 2352.76,1412.5 "></polyline>
<polyline clip-path="url(#clip502)" style="stroke:#000000; stroke-linecap:round; stroke-linejoin:round; stroke-width:2; stroke-opacity:0.1; fill:none" points="222.501,1137.32 2352.76,1137.32 "></polyline>
<polyline clip-path="url(#clip502)" style="stroke:#000000; stroke-linecap:round; stroke-linejoin:round; stroke-width:2; stroke-opacity:0.1; fill:none" points="222.501,862.144 2352.76,862.144 "></polyline>
<polyline clip-path="url(#clip502)" style="stroke:#000000; stroke-linecap:round; stroke-linejoin:round; stroke-width:2; stroke-opacity:0.1; fill:none" points="222.501,586.965 2352.76,586.965 "></polyline>
<polyline clip-path="url(#clip502)" style="stroke:#000000; stroke-linecap:round; stroke-linejoin:round; stroke-width:2; stroke-opacity:0.1; fill:none" points="222.501,311.786 2352.76,311.786 "></polyline>
<polyline clip-path="url(#clip502)" style="stroke:#000000; stroke-linecap:round; stroke-linejoin:round; stroke-width:2; stroke-opacity:0.1; fill:none" points="222.501,1412.5 2352.76,1412.5 "></polyline>
<polyline clip-path="url(#clip502)" style="stroke:#000000; stroke-linecap:round; stroke-linejoin:round; stroke-width:2; stroke-opacity:0.1; fill:none" points="222.501,1137.32 2352.76,1137.32 "></polyline>
<polyline clip-path="url(#clip502)" style="stroke:#000000; stroke-linecap:round; stroke-linejoin:round; stroke-width:2; stroke-opacity:0.1; fill:none" points="222.501,862.144 2352.76,862.144 "></polyline>
<polyline clip-path="url(#clip502)" style="stroke:#000000; stroke-linecap:round; stroke-linejoin:round; stroke-width:2; stroke-opacity:0.1; fill:none" points="222.501,586.965 2352.76,586.965 "></polyline>
<polyline clip-path="url(#clip502)" style="stroke:#000000; stroke-linecap:round; stroke-linejoin:round; stroke-width:2; stroke-opacity:0.1; fill:none" points="222.501,311.786 2352.76,311.786 "></polyline>
<polyline clip-path="url(#clip500)" style="stroke:#000000; stroke-linecap:round; stroke-linejoin:round; stroke-width:4; stroke-opacity:1; fill:none" points="222.501,1486.45 2352.76,1486.45 "></polyline>
<polyline clip-path="url(#clip500)" style="stroke:#000000; stroke-linecap:round; stroke-linejoin:round; stroke-width:4; stroke-opacity:1; fill:none" points="222.501,47.2441 2352.76,47.2441 "></polyline>
<polyline clip-path="url(#clip500)" style="stroke:#000000; stroke-linecap:round; stroke-linejoin:round; stroke-width:4; stroke-opacity:1; fill:none" points="262.491,1486.45 262.491,1467.55 "></polyline>
<polyline clip-path="url(#clip500)" style="stroke:#000000; stroke-linecap:round; stroke-linejoin:round; stroke-width:4; stroke-opacity:1; fill:none" points="769.985,1486.45 769.985,1467.55 "></polyline>
<polyline clip-path="url(#clip500)" style="stroke:#000000; stroke-linecap:round; stroke-linejoin:round; stroke-width:4; stroke-opacity:1; fill:none" points="1277.48,1486.45 1277.48,1467.55 "></polyline>
<polyline clip-path="url(#clip500)" style="stroke:#000000; stroke-linecap:round; stroke-linejoin:round; stroke-width:4; stroke-opacity:1; fill:none" points="1784.97,1486.45 1784.97,1467.55 "></polyline>
<polyline clip-path="url(#clip500)" style="stroke:#000000; stroke-linecap:round; stroke-linejoin:round; stroke-width:4; stroke-opacity:1; fill:none" points="2292.47,1486.45 2292.47,1467.55 "></polyline>
<polyline clip-path="url(#clip500)" style="stroke:#000000; stroke-linecap:round; stroke-linejoin:round; stroke-width:4; stroke-opacity:1; fill:none" points="262.491,47.2441 262.491,66.1417 "></polyline>
<polyline clip-path="url(#clip500)" style="stroke:#000000; stroke-linecap:round; stroke-linejoin:round; stroke-width:4; stroke-opacity:1; fill:none" points="769.985,47.2441 769.985,66.1417 "></polyline>
<polyline clip-path="url(#clip500)" style="stroke:#000000; stroke-linecap:round; stroke-linejoin:round; stroke-width:4; stroke-opacity:1; fill:none" points="1277.48,47.2441 1277.48,66.1417 "></polyline>
<polyline clip-path="url(#clip500)" style="stroke:#000000; stroke-linecap:round; stroke-linejoin:round; stroke-width:4; stroke-opacity:1; fill:none" points="1784.97,47.2441 1784.97,66.1417 "></polyline>
<polyline clip-path="url(#clip500)" style="stroke:#000000; stroke-linecap:round; stroke-linejoin:round; stroke-width:4; stroke-opacity:1; fill:none" points="2292.47,47.2441 2292.47,66.1417 "></polyline>
<path clip-path="url(#clip500)" d="M262.491 1517.37 Q258.88 1517.37 257.051 1520.93 Q255.246 1524.47 255.246 1531.6 Q255.246 1538.71 257.051 1542.27 Q258.88 1545.82 262.491 1545.82 Q266.125 1545.82 267.931 1542.27 Q269.76 1538.71 269.76 1531.6 Q269.76 1524.47 267.931 1520.93 Q266.125 1517.37 262.491 1517.37 M262.491 1513.66 Q268.301 1513.66 271.357 1518.27 Q274.436 1522.85 274.436 1531.6 Q274.436 1540.33 271.357 1544.94 Q268.301 1549.52 262.491 1549.52 Q256.681 1549.52 253.602 1544.94 Q250.547 1540.33 250.547 1531.6 Q250.547 1522.85 253.602 1518.27 Q256.681 1513.66 262.491 1513.66 Z" fill="#000000" fill-rule="nonzero" fill-opacity="1"></path><path clip-path="url(#clip500)" d="M749.256 1544.91 L765.575 1544.91 L765.575 1548.85 L743.631 1548.85 L743.631 1544.91 Q746.293 1542.16 750.876 1537.53 Q755.483 1532.88 756.663 1531.53 Q758.908 1529.01 759.788 1527.27 Q760.691 1525.51 760.691 1523.82 Q760.691 1521.07 758.746 1519.33 Q756.825 1517.6 753.723 1517.6 Q751.524 1517.6 749.071 1518.36 Q746.64 1519.13 743.862 1520.68 L743.862 1515.95 Q746.686 1514.82 749.14 1514.24 Q751.594 1513.66 753.631 1513.66 Q759.001 1513.66 762.195 1516.35 Q765.39 1519.03 765.39 1523.52 Q765.39 1525.65 764.58 1527.57 Q763.793 1529.47 761.686 1532.07 Q761.108 1532.74 758.006 1535.95 Q754.904 1539.15 749.256 1544.91 Z" fill="#000000" fill-rule="nonzero" fill-opacity="1"></path><path clip-path="url(#clip500)" d="M775.436 1514.29 L793.793 1514.29 L793.793 1518.22 L779.719 1518.22 L779.719 1526.7 Q780.737 1526.35 781.756 1526.19 Q782.774 1526 783.793 1526 Q789.58 1526 792.959 1529.17 Q796.339 1532.34 796.339 1537.76 Q796.339 1543.34 792.867 1546.44 Q789.394 1549.52 783.075 1549.52 Q780.899 1549.52 778.631 1549.15 Q776.385 1548.78 773.978 1548.04 L773.978 1543.34 Q776.061 1544.47 778.283 1545.03 Q780.506 1545.58 782.982 1545.58 Q786.987 1545.58 789.325 1543.48 Q791.663 1541.37 791.663 1537.76 Q791.663 1534.15 789.325 1532.04 Q786.987 1529.94 782.982 1529.94 Q781.107 1529.94 779.232 1530.35 Q777.381 1530.77 775.436 1531.65 L775.436 1514.29 Z" fill="#000000" fill-rule="nonzero" fill-opacity="1"></path><path clip-path="url(#clip500)" d="M1252.18 1514.29 L1270.53 1514.29 L1270.53 1518.22 L1256.46 1518.22 L1256.46 1526.7 Q1257.48 1526.35 1258.5 1526.19 Q1259.52 1526 1260.53 1526 Q1266.32 1526 1269.7 1529.17 Q1273.08 1532.34 1273.08 1537.76 Q1273.08 1543.34 1269.61 1546.44 Q1266.14 1549.52 1259.82 1549.52 Q1257.64 1549.52 1255.37 1549.15 Q1253.13 1548.78 1250.72 1548.04 L1250.72 1543.34 Q1252.8 1544.47 1255.02 1545.03 Q1257.25 1545.58 1259.72 1545.58 Q1263.73 1545.58 1266.07 1543.48 Q1268.4 1541.37 1268.4 1537.76 Q1268.4 1534.15 1266.07 1532.04 Q1263.73 1529.94 1259.72 1529.94 Q1257.85 1529.94 1255.97 1530.35 Q1254.12 1530.77 1252.18 1531.65 L1252.18 1514.29 Z" fill="#000000" fill-rule="nonzero" fill-opacity="1"></path><path clip-path="url(#clip500)" d="M1292.29 1517.37 Q1288.68 1517.37 1286.85 1520.93 Q1285.05 1524.47 1285.05 1531.6 Q1285.05 1538.71 1286.85 1542.27 Q1288.68 1545.82 1292.29 1545.82 Q1295.93 1545.82 1297.73 1542.27 Q1299.56 1538.71 1299.56 1531.6 Q1299.56 1524.47 1297.73 1520.93 Q1295.93 1517.37 1292.29 1517.37 M1292.29 1513.66 Q1298.1 1513.66 1301.16 1518.27 Q1304.24 1522.85 1304.24 1531.6 Q1304.24 1540.33 1301.16 1544.94 Q1298.1 1549.52 1292.29 1549.52 Q1286.48 1549.52 1283.4 1544.94 Q1280.35 1540.33 1280.35 1531.6 Q1280.35 1522.85 1283.4 1518.27 Q1286.48 1513.66 1292.29 1513.66 Z" fill="#000000" fill-rule="nonzero" fill-opacity="1"></path><path clip-path="url(#clip500)" d="M1758.83 1514.29 L1781.05 1514.29 L1781.05 1516.28 L1768.5 1548.85 L1763.62 1548.85 L1775.42 1518.22 L1758.83 1518.22 L1758.83 1514.29 Z" fill="#000000" fill-rule="nonzero" fill-opacity="1"></path><path clip-path="url(#clip500)" d="M1790.22 1514.29 L1808.57 1514.29 L1808.57 1518.22 L1794.5 1518.22 L1794.5 1526.7 Q1795.52 1526.35 1796.53 1526.19 Q1797.55 1526 1798.57 1526 Q1804.36 1526 1807.74 1529.17 Q1811.12 1532.34 1811.12 1537.76 Q1811.12 1543.34 1807.65 1546.44 Q1804.17 1549.52 1797.85 1549.52 Q1795.68 1549.52 1793.41 1549.15 Q1791.16 1548.78 1788.76 1548.04 L1788.76 1543.34 Q1790.84 1544.47 1793.06 1545.03 Q1795.28 1545.58 1797.76 1545.58 Q1801.77 1545.58 1804.1 1543.48 Q1806.44 1541.37 1806.44 1537.76 Q1806.44 1534.15 1804.1 1532.04 Q1801.77 1529.94 1797.76 1529.94 Q1795.89 1529.94 1794.01 1530.35 Q1792.16 1530.77 1790.22 1531.65 L1790.22 1514.29 Z" fill="#000000" fill-rule="nonzero" fill-opacity="1"></path><path clip-path="url(#clip500)" d="M2252.07 1544.91 L2259.71 1544.91 L2259.71 1518.55 L2251.4 1520.21 L2251.4 1515.95 L2259.66 1514.29 L2264.34 1514.29 L2264.34 1544.91 L2271.98 1544.91 L2271.98 1548.85 L2252.07 1548.85 L2252.07 1544.91 Z" fill="#000000" fill-rule="nonzero" fill-opacity="1"></path><path clip-path="url(#clip500)" d="M2291.42 1517.37 Q2287.81 1517.37 2285.98 1520.93 Q2284.18 1524.47 2284.18 1531.6 Q2284.18 1538.71 2285.98 1542.27 Q2287.81 1545.82 2291.42 1545.82 Q2295.06 1545.82 2296.86 1542.27 Q2298.69 1538.71 2298.69 1531.6 Q2298.69 1524.47 2296.86 1520.93 Q2295.06 1517.37 2291.42 1517.37 M2291.42 1513.66 Q2297.23 1513.66 2300.29 1518.27 Q2303.37 1522.85 2303.37 1531.6 Q2303.37 1540.33 2300.29 1544.94 Q2297.23 1549.52 2291.42 1549.52 Q2285.61 1549.52 2282.54 1544.94 Q2279.48 1540.33 2279.48 1531.6 Q2279.48 1522.85 2282.54 1518.27 Q2285.61 1513.66 2291.42 1513.66 Z" fill="#000000" fill-rule="nonzero" fill-opacity="1"></path><path clip-path="url(#clip500)" d="M2321.59 1517.37 Q2317.97 1517.37 2316.15 1520.93 Q2314.34 1524.47 2314.34 1531.6 Q2314.34 1538.71 2316.15 1542.27 Q2317.97 1545.82 2321.59 1545.82 Q2325.22 1545.82 2327.03 1542.27 Q2328.85 1538.71 2328.85 1531.6 Q2328.85 1524.47 2327.03 1520.93 Q2325.22 1517.37 2321.59 1517.37 M2321.59 1513.66 Q2327.4 1513.66 2330.45 1518.27 Q2333.53 1522.85 2333.53 1531.6 Q2333.53 1540.33 2330.45 1544.94 Q2327.4 1549.52 2321.59 1549.52 Q2315.78 1549.52 2312.7 1544.94 Q2309.64 1540.33 2309.64 1531.6 Q2309.64 1522.85 2312.7 1518.27 Q2315.78 1513.66 2321.59 1513.66 Z" fill="#000000" fill-rule="nonzero" fill-opacity="1"></path><polyline clip-path="url(#clip500)" style="stroke:#000000; stroke-linecap:round; stroke-linejoin:round; stroke-width:4; stroke-opacity:1; fill:none" points="222.501,1486.45 222.501,47.2441 "></polyline>
<polyline clip-path="url(#clip500)" style="stroke:#000000; stroke-linecap:round; stroke-linejoin:round; stroke-width:4; stroke-opacity:1; fill:none" points="2352.76,1486.45 2352.76,47.2441 "></polyline>
<polyline clip-path="url(#clip500)" style="stroke:#000000; stroke-linecap:round; stroke-linejoin:round; stroke-width:4; stroke-opacity:1; fill:none" points="222.501,1412.5 241.398,1412.5 "></polyline>
<polyline clip-path="url(#clip500)" style="stroke:#000000; stroke-linecap:round; stroke-linejoin:round; stroke-width:4; stroke-opacity:1; fill:none" points="222.501,1137.32 241.398,1137.32 "></polyline>
<polyline clip-path="url(#clip500)" style="stroke:#000000; stroke-linecap:round; stroke-linejoin:round; stroke-width:4; stroke-opacity:1; fill:none" points="222.501,862.144 241.398,862.144 "></polyline>
<polyline clip-path="url(#clip500)" style="stroke:#000000; stroke-linecap:round; stroke-linejoin:round; stroke-width:4; stroke-opacity:1; fill:none" points="222.501,586.965 241.398,586.965 "></polyline>
<polyline clip-path="url(#clip500)" style="stroke:#000000; stroke-linecap:round; stroke-linejoin:round; stroke-width:4; stroke-opacity:1; fill:none" points="222.501,311.786 241.398,311.786 "></polyline>
<polyline clip-path="url(#clip500)" style="stroke:#000000; stroke-linecap:round; stroke-linejoin:round; stroke-width:4; stroke-opacity:1; fill:none" points="2352.76,1412.5 2333.86,1412.5 "></polyline>
<polyline clip-path="url(#clip500)" style="stroke:#000000; stroke-linecap:round; stroke-linejoin:round; stroke-width:4; stroke-opacity:1; fill:none" points="2352.76,1137.32 2333.86,1137.32 "></polyline>
<polyline clip-path="url(#clip500)" style="stroke:#000000; stroke-linecap:round; stroke-linejoin:round; stroke-width:4; stroke-opacity:1; fill:none" points="2352.76,862.144 2333.86,862.144 "></polyline>
<polyline clip-path="url(#clip500)" style="stroke:#000000; stroke-linecap:round; stroke-linejoin:round; stroke-width:4; stroke-opacity:1; fill:none" points="2352.76,586.965 2333.86,586.965 "></polyline>
<polyline clip-path="url(#clip500)" style="stroke:#000000; stroke-linecap:round; stroke-linejoin:round; stroke-width:4; stroke-opacity:1; fill:none" points="2352.76,311.786 2333.86,311.786 "></polyline>
<path clip-path="url(#clip500)" d="M50.9921 1412.95 L80.6679 1412.95 L80.6679 1416.89 L50.9921 1416.89 L50.9921 1412.95 Z" fill="#000000" fill-rule="nonzero" fill-opacity="1"></path><path clip-path="url(#clip500)" d="M100.76 1398.3 Q97.1493 1398.3 95.3206 1401.87 Q93.515 1405.41 93.515 1412.54 Q93.515 1419.64 95.3206 1423.21 Q97.1493 1426.75 100.76 1426.75 Q104.395 1426.75 106.2 1423.21 Q108.029 1419.64 108.029 1412.54 Q108.029 1405.41 106.2 1401.87 Q104.395 1398.3 100.76 1398.3 M100.76 1394.6 Q106.571 1394.6 109.626 1399.2 Q112.705 1403.79 112.705 1412.54 Q112.705 1421.26 109.626 1425.87 Q106.571 1430.45 100.76 1430.45 Q94.9502 1430.45 91.8715 1425.87 Q88.816 1421.26 88.816 1412.54 Q88.816 1403.79 91.8715 1399.2 Q94.9502 1394.6 100.76 1394.6 Z" fill="#000000" fill-rule="nonzero" fill-opacity="1"></path><path clip-path="url(#clip500)" d="M120.922 1423.9 L125.807 1423.9 L125.807 1429.78 L120.922 1429.78 L120.922 1423.9 Z" fill="#000000" fill-rule="nonzero" fill-opacity="1"></path><path clip-path="url(#clip500)" d="M145.992 1398.3 Q142.381 1398.3 140.552 1401.87 Q138.746 1405.41 138.746 1412.54 Q138.746 1419.64 140.552 1423.21 Q142.381 1426.75 145.992 1426.75 Q149.626 1426.75 151.431 1423.21 Q153.26 1419.64 153.26 1412.54 Q153.26 1405.41 151.431 1401.87 Q149.626 1398.3 145.992 1398.3 M145.992 1394.6 Q151.802 1394.6 154.857 1399.2 Q157.936 1403.79 157.936 1412.54 Q157.936 1421.26 154.857 1425.87 Q151.802 1430.45 145.992 1430.45 Q140.181 1430.45 137.103 1425.87 Q134.047 1421.26 134.047 1412.54 Q134.047 1403.79 137.103 1399.2 Q140.181 1394.6 145.992 1394.6 Z" fill="#000000" fill-rule="nonzero" fill-opacity="1"></path><path clip-path="url(#clip500)" d="M170.181 1425.85 L186.501 1425.85 L186.501 1429.78 L164.556 1429.78 L164.556 1425.85 Q167.218 1423.09 171.802 1418.46 Q176.408 1413.81 177.589 1412.47 Q179.834 1409.94 180.714 1408.21 Q181.616 1406.45 181.616 1404.76 Q181.616 1402 179.672 1400.27 Q177.751 1398.53 174.649 1398.53 Q172.45 1398.53 169.996 1399.3 Q167.566 1400.06 164.788 1401.61 L164.788 1396.89 Q167.612 1395.75 170.066 1395.18 Q172.519 1394.6 174.556 1394.6 Q179.927 1394.6 183.121 1397.28 Q186.315 1399.97 186.315 1404.46 Q186.315 1406.59 185.505 1408.51 Q184.718 1410.41 182.612 1413 Q182.033 1413.67 178.931 1416.89 Q175.829 1420.08 170.181 1425.85 Z" fill="#000000" fill-rule="nonzero" fill-opacity="1"></path><path clip-path="url(#clip500)" d="M99.1632 1123.12 Q95.5521 1123.12 93.7234 1126.69 Q91.9178 1130.23 91.9178 1137.36 Q91.9178 1144.46 93.7234 1148.03 Q95.5521 1151.57 99.1632 1151.57 Q102.797 1151.57 104.603 1148.03 Q106.432 1144.46 106.432 1137.36 Q106.432 1130.23 104.603 1126.69 Q102.797 1123.12 99.1632 1123.12 M99.1632 1119.42 Q104.973 1119.42 108.029 1124.02 Q111.108 1128.61 111.108 1137.36 Q111.108 1146.08 108.029 1150.69 Q104.973 1155.27 99.1632 1155.27 Q93.353 1155.27 90.2743 1150.69 Q87.2188 1146.08 87.2188 1137.36 Q87.2188 1128.61 90.2743 1124.02 Q93.353 1119.42 99.1632 1119.42 Z" fill="#000000" fill-rule="nonzero" fill-opacity="1"></path><path clip-path="url(#clip500)" d="M119.325 1148.72 L124.209 1148.72 L124.209 1154.6 L119.325 1154.6 L119.325 1148.72 Z" fill="#000000" fill-rule="nonzero" fill-opacity="1"></path><path clip-path="url(#clip500)" d="M144.394 1123.12 Q140.783 1123.12 138.955 1126.69 Q137.149 1130.23 137.149 1137.36 Q137.149 1144.46 138.955 1148.03 Q140.783 1151.57 144.394 1151.57 Q148.029 1151.57 149.834 1148.03 Q151.663 1144.46 151.663 1137.36 Q151.663 1130.23 149.834 1126.69 Q148.029 1123.12 144.394 1123.12 M144.394 1119.42 Q150.205 1119.42 153.26 1124.02 Q156.339 1128.61 156.339 1137.36 Q156.339 1146.08 153.26 1150.69 Q150.205 1155.27 144.394 1155.27 Q138.584 1155.27 135.506 1150.69 Q132.45 1146.08 132.45 1137.36 Q132.45 1128.61 135.506 1124.02 Q138.584 1119.42 144.394 1119.42 Z" fill="#000000" fill-rule="nonzero" fill-opacity="1"></path><path clip-path="url(#clip500)" d="M174.556 1123.12 Q170.945 1123.12 169.116 1126.69 Q167.311 1130.23 167.311 1137.36 Q167.311 1144.46 169.116 1148.03 Q170.945 1151.57 174.556 1151.57 Q178.191 1151.57 179.996 1148.03 Q181.825 1144.46 181.825 1137.36 Q181.825 1130.23 179.996 1126.69 Q178.191 1123.12 174.556 1123.12 M174.556 1119.42 Q180.366 1119.42 183.422 1124.02 Q186.501 1128.61 186.501 1137.36 Q186.501 1146.08 183.422 1150.69 Q180.366 1155.27 174.556 1155.27 Q168.746 1155.27 165.667 1150.69 Q162.612 1146.08 162.612 1137.36 Q162.612 1128.61 165.667 1124.02 Q168.746 1119.42 174.556 1119.42 Z" fill="#000000" fill-rule="nonzero" fill-opacity="1"></path><path clip-path="url(#clip500)" d="M100.76 847.943 Q97.1493 847.943 95.3206 851.508 Q93.515 855.049 93.515 862.179 Q93.515 869.285 95.3206 872.85 Q97.1493 876.392 100.76 876.392 Q104.395 876.392 106.2 872.85 Q108.029 869.285 108.029 862.179 Q108.029 855.049 106.2 851.508 Q104.395 847.943 100.76 847.943 M100.76 844.239 Q106.571 844.239 109.626 848.846 Q112.705 853.429 112.705 862.179 Q112.705 870.906 109.626 875.512 Q106.571 880.095 100.76 880.095 Q94.9502 880.095 91.8715 875.512 Q88.816 870.906 88.816 862.179 Q88.816 853.429 91.8715 848.846 Q94.9502 844.239 100.76 844.239 Z" fill="#000000" fill-rule="nonzero" fill-opacity="1"></path><path clip-path="url(#clip500)" d="M120.922 873.544 L125.807 873.544 L125.807 879.424 L120.922 879.424 L120.922 873.544 Z" fill="#000000" fill-rule="nonzero" fill-opacity="1"></path><path clip-path="url(#clip500)" d="M145.992 847.943 Q142.381 847.943 140.552 851.508 Q138.746 855.049 138.746 862.179 Q138.746 869.285 140.552 872.85 Q142.381 876.392 145.992 876.392 Q149.626 876.392 151.431 872.85 Q153.26 869.285 153.26 862.179 Q153.26 855.049 151.431 851.508 Q149.626 847.943 145.992 847.943 M145.992 844.239 Q151.802 844.239 154.857 848.846 Q157.936 853.429 157.936 862.179 Q157.936 870.906 154.857 875.512 Q151.802 880.095 145.992 880.095 Q140.181 880.095 137.103 875.512 Q134.047 870.906 134.047 862.179 Q134.047 853.429 137.103 848.846 Q140.181 844.239 145.992 844.239 Z" fill="#000000" fill-rule="nonzero" fill-opacity="1"></path><path clip-path="url(#clip500)" d="M170.181 875.489 L186.501 875.489 L186.501 879.424 L164.556 879.424 L164.556 875.489 Q167.218 872.734 171.802 868.105 Q176.408 863.452 177.589 862.109 Q179.834 859.586 180.714 857.85 Q181.616 856.091 181.616 854.401 Q181.616 851.646 179.672 849.91 Q177.751 848.174 174.649 848.174 Q172.45 848.174 169.996 848.938 Q167.566 849.702 164.788 851.253 L164.788 846.531 Q167.612 845.396 170.066 844.818 Q172.519 844.239 174.556 844.239 Q179.927 844.239 183.121 846.924 Q186.315 849.609 186.315 854.1 Q186.315 856.23 185.505 858.151 Q184.718 860.049 182.612 862.642 Q182.033 863.313 178.931 866.531 Q175.829 869.725 170.181 875.489 Z" fill="#000000" fill-rule="nonzero" fill-opacity="1"></path><path clip-path="url(#clip500)" d="M98.6771 572.764 Q95.066 572.764 93.2373 576.329 Q91.4317 579.87 91.4317 587 Q91.4317 594.106 93.2373 597.671 Q95.066 601.213 98.6771 601.213 Q102.311 601.213 104.117 597.671 Q105.946 594.106 105.946 587 Q105.946 579.87 104.117 576.329 Q102.311 572.764 98.6771 572.764 M98.6771 569.06 Q104.487 569.06 107.543 573.667 Q110.621 578.25 110.621 587 Q110.621 595.727 107.543 600.333 Q104.487 604.916 98.6771 604.916 Q92.8669 604.916 89.7882 600.333 Q86.7327 595.727 86.7327 587 Q86.7327 578.25 89.7882 573.667 Q92.8669 569.06 98.6771 569.06 Z" fill="#000000" fill-rule="nonzero" fill-opacity="1"></path><path clip-path="url(#clip500)" d="M118.839 598.365 L123.723 598.365 L123.723 604.245 L118.839 604.245 L118.839 598.365 Z" fill="#000000" fill-rule="nonzero" fill-opacity="1"></path><path clip-path="url(#clip500)" d="M143.908 572.764 Q140.297 572.764 138.469 576.329 Q136.663 579.87 136.663 587 Q136.663 594.106 138.469 597.671 Q140.297 601.213 143.908 601.213 Q147.543 601.213 149.348 597.671 Q151.177 594.106 151.177 587 Q151.177 579.87 149.348 576.329 Q147.543 572.764 143.908 572.764 M143.908 569.06 Q149.718 569.06 152.774 573.667 Q155.853 578.25 155.853 587 Q155.853 595.727 152.774 600.333 Q149.718 604.916 143.908 604.916 Q138.098 604.916 135.019 600.333 Q131.964 595.727 131.964 587 Q131.964 578.25 135.019 573.667 Q138.098 569.06 143.908 569.06 Z" fill="#000000" fill-rule="nonzero" fill-opacity="1"></path><path clip-path="url(#clip500)" d="M176.917 573.759 L165.112 592.208 L176.917 592.208 L176.917 573.759 M175.691 569.685 L181.57 569.685 L181.57 592.208 L186.501 592.208 L186.501 596.097 L181.57 596.097 L181.57 604.245 L176.917 604.245 L176.917 596.097 L161.316 596.097 L161.316 591.583 L175.691 569.685 Z" fill="#000000" fill-rule="nonzero" fill-opacity="1"></path><path clip-path="url(#clip500)" d="M99.0011 297.585 Q95.39 297.585 93.5613 301.15 Q91.7558 304.691 91.7558 311.821 Q91.7558 318.927 93.5613 322.492 Q95.39 326.034 99.0011 326.034 Q102.635 326.034 104.441 322.492 Q106.27 318.927 106.27 311.821 Q106.27 304.691 104.441 301.15 Q102.635 297.585 99.0011 297.585 M99.0011 293.881 Q104.811 293.881 107.867 298.488 Q110.946 303.071 110.946 311.821 Q110.946 320.548 107.867 325.154 Q104.811 329.737 99.0011 329.737 Q93.191 329.737 90.1123 325.154 Q87.0567 320.548 87.0567 311.821 Q87.0567 303.071 90.1123 298.488 Q93.191 293.881 99.0011 293.881 Z" fill="#000000" fill-rule="nonzero" fill-opacity="1"></path><path clip-path="url(#clip500)" d="M119.163 323.187 L124.047 323.187 L124.047 329.066 L119.163 329.066 L119.163 323.187 Z" fill="#000000" fill-rule="nonzero" fill-opacity="1"></path><path clip-path="url(#clip500)" d="M144.232 297.585 Q140.621 297.585 138.793 301.15 Q136.987 304.691 136.987 311.821 Q136.987 318.927 138.793 322.492 Q140.621 326.034 144.232 326.034 Q147.867 326.034 149.672 322.492 Q151.501 318.927 151.501 311.821 Q151.501 304.691 149.672 301.15 Q147.867 297.585 144.232 297.585 M144.232 293.881 Q150.043 293.881 153.098 298.488 Q156.177 303.071 156.177 311.821 Q156.177 320.548 153.098 325.154 Q150.043 329.737 144.232 329.737 Q138.422 329.737 135.344 325.154 Q132.288 320.548 132.288 311.821 Q132.288 303.071 135.344 298.488 Q138.422 293.881 144.232 293.881 Z" fill="#000000" fill-rule="nonzero" fill-opacity="1"></path><path clip-path="url(#clip500)" d="M174.973 309.923 Q171.825 309.923 169.973 312.075 Q168.144 314.228 168.144 317.978 Q168.144 321.705 169.973 323.881 Q171.825 326.034 174.973 326.034 Q178.121 326.034 179.95 323.881 Q181.802 321.705 181.802 317.978 Q181.802 314.228 179.95 312.075 Q178.121 309.923 174.973 309.923 M184.255 295.27 L184.255 299.529 Q182.496 298.696 180.691 298.256 Q178.908 297.816 177.149 297.816 Q172.519 297.816 170.066 300.941 Q167.635 304.066 167.288 310.386 Q168.654 308.372 170.714 307.307 Q172.774 306.219 175.251 306.219 Q180.459 306.219 183.468 309.39 Q186.501 312.538 186.501 317.978 Q186.501 323.302 183.353 326.52 Q180.204 329.737 174.973 329.737 Q168.978 329.737 165.806 325.154 Q162.635 320.548 162.635 311.821 Q162.635 303.626 166.524 298.765 Q170.413 293.881 176.964 293.881 Q178.723 293.881 180.505 294.228 Q182.311 294.576 184.255 295.27 Z" fill="#000000" fill-rule="nonzero" fill-opacity="1"></path><polyline clip-path="url(#clip502)" style="stroke:#009af9; stroke-linecap:round; stroke-linejoin:round; stroke-width:4; stroke-opacity:1; fill:none" points="282.791,1313.76 303.091,1288.17 323.39,1318.58 343.69,1305.97 363.99,1375.72 384.29,1315.45 404.589,1194.39 424.889,1373.34 445.189,1327.37 465.489,1076.88 485.788,1149.14 506.088,1300.14 526.388,1374.43 546.688,1372.67 566.987,1321.8 587.287,1348.24 607.587,1202.83 627.887,1319.88 648.186,1400.55 668.486,1312.03 688.786,1317.02 709.086,1376.58 729.385,1334.58 749.685,1248.82 769.985,87.9763 790.285,1235.23 810.584,1251.74 830.884,1312.77 851.184,1335.61 871.484,1385.99 891.783,1355.35 912.083,1359.92 932.383,1366.04 952.682,1228.14 972.982,1356.75 993.282,1250.59 1013.58,1334.47 1033.88,1429.94 1054.18,1377.25 1074.48,1325.53 1094.78,1282.19 1115.08,1303.29 1135.38,1358.52 1155.68,1335.27 1175.98,1385.01 1196.28,1370.82 1216.58,1350.17 1236.88,1294.77 1257.18,1330.19 1277.48,1339.12 1297.78,1271.78 1318.08,1349.13 1338.38,1195.56 1358.68,1355.86 1378.98,1286.5 1399.28,1253.86 1419.58,1356.15 1439.88,1388.26 1460.18,1351.28 1480.48,1372.19 1500.78,1349.04 1521.08,1420.54 1541.38,1416.3 1561.67,1389.28 1581.97,1408.7 1602.27,1436.41 1622.57,1435.27 1642.87,1382.88 1663.17,1219.61 1683.47,1426.9 1703.77,1436.59 1724.07,1255.93 1744.37,1199.11 1764.67,1394.44 1784.97,1366.8 1805.27,1313.88 1825.57,1261.45 1845.87,1293.84 1866.17,1381.93 1886.47,1417.44 1906.77,1318.38 1927.07,1379.69 1947.37,1421.01 1967.67,1425.46 1987.97,1345.08 2008.27,1285.19 2028.57,1242.75 2048.87,1105.22 2069.17,1389.02 2089.47,1379.09 2109.77,1378 2130.07,1398.38 2150.37,1379.25 2170.67,1408.92 2190.97,1396.17 2211.27,1437.54 2231.57,1336 2251.87,1412.72 2272.17,1372.42 2292.47,1445.72 "></polyline>
<polyline clip-path="url(#clip502)" style="stroke:#e26f46; stroke-linecap:round; stroke-linejoin:round; stroke-width:4; stroke-opacity:1; fill:none" points="282.791,1128.67 303.091,1217.81 323.39,1209.19 343.69,1220.97 363.99,1221.69 384.29,1254.84 404.589,1234.79 424.889,1188.28 445.189,1265.6 465.489,1255.44 485.788,1153.64 506.088,1186.06 526.388,1253.62 546.688,1291.94 566.987,1285.88 587.287,1265.81 607.587,1279.12 627.887,1222.55 648.186,1278.17 668.486,1313.55 688.786,1275.35 709.086,1278.4 729.385,1306.89 749.685,1288.61 769.985,1247.11 790.285,679.654 810.584,1177.12 830.884,1241.91 851.184,1262.81 871.484,1275.95 891.783,1294.15 912.083,1285.38 932.383,1285.5 952.682,1288.55 972.982,1242.32 993.282,1285 1013.58,1254.66 1033.88,1282.17 1054.18,1322.18 1074.48,1307.85 1094.78,1290.65 1115.08,1268.29 1135.38,1274.59 1155.68,1296.49 1175.98,1294.7 1196.28,1314.98 1216.58,1315.03 1236.88,1308.37 1257.18,1289.9 1277.48,1298.87 1297.78,1305.92 1318.08,1285.45 1338.38,1310.19 1358.68,1260.92 1378.98,1311.37 1399.28,1296.96 1419.58,1280.89 1439.88,1294.21 1460.18,1320.7 1480.48,1312.64 1500.78,1321.39 1521.08,1317.48 1541.38,1344.6 1561.67,1349.58 1581.97,1343.17 1602.27,1351.96 1622.57,1362.15 1642.87,1367.99 1663.17,1349.76 1683.47,1295.47 1703.77,1361.59 1724.07,1378.44 1744.37,1320.01 1764.67,1296.82 1784.97,1362.1 1805.27,1364.41 1825.57,1346.39 1845.87,1326.55 1866.17,1337.59 1886.47,1368.88 1906.77,1386.3 1927.07,1357.09 1947.37,1372.01 1967.67,1389.38 1987.97,1393.89 2008.27,1363.44 2028.57,1344.49 2048.87,1325.1 2069.17,1269.79 2089.47,1359.27 2109.77,1370.34 2130.07,1369.45 2150.37,1376.8 2170.67,1371.07 2190.97,1383.69 2211.27,1383.77 2231.57,1399.58 2251.87,1366.93 2272.17,1388.6 2292.47,1379.54 "></polyline>
<path clip-path="url(#clip500)" d="M1873.91 250.738 L2281.75 250.738 L2281.75 95.2176 L1873.91 95.2176  Z" fill="#ffffff" fill-rule="evenodd" fill-opacity="1"></path>
<polyline clip-path="url(#clip500)" style="stroke:#000000; stroke-linecap:round; stroke-linejoin:round; stroke-width:4; stroke-opacity:1; fill:none" points="1873.91,250.738 2281.75,250.738 2281.75,95.2176 1873.91,95.2176 1873.91,250.738 "></polyline>
<polyline clip-path="url(#clip500)" style="stroke:#009af9; stroke-linecap:round; stroke-linejoin:round; stroke-width:4; stroke-opacity:1; fill:none" points="1897.58,147.058 2039.59,147.058 "></polyline>
<path clip-path="url(#clip500)" d="M2067.94 133.62 L2067.94 160.495 L2073.59 160.495 Q2080.74 160.495 2084.05 157.254 Q2087.38 154.014 2087.38 147.023 Q2087.38 140.078 2084.05 136.861 Q2080.74 133.62 2073.59 133.62 L2067.94 133.62 M2063.26 129.778 L2072.87 129.778 Q2082.92 129.778 2087.62 133.967 Q2092.31 138.134 2092.31 147.023 Q2092.31 155.958 2087.59 160.148 Q2082.87 164.338 2072.87 164.338 L2063.26 164.338 L2063.26 129.778 Z" fill="#000000" fill-rule="nonzero" fill-opacity="1"></path><path clip-path="url(#clip500)" d="M2111.37 151.305 Q2106.2 151.305 2104.21 152.486 Q2102.22 153.666 2102.22 156.514 Q2102.22 158.782 2103.7 160.125 Q2105.21 161.444 2107.78 161.444 Q2111.32 161.444 2113.45 158.944 Q2115.6 156.421 2115.6 152.254 L2115.6 151.305 L2111.37 151.305 M2119.86 149.546 L2119.86 164.338 L2115.6 164.338 L2115.6 160.402 Q2114.14 162.763 2111.97 163.898 Q2109.79 165.009 2106.64 165.009 Q2102.66 165.009 2100.3 162.787 Q2097.96 160.541 2097.96 156.791 Q2097.96 152.416 2100.88 150.194 Q2103.82 147.972 2109.63 147.972 L2115.6 147.972 L2115.6 147.555 Q2115.6 144.615 2113.66 143.018 Q2111.74 141.398 2108.24 141.398 Q2106.02 141.398 2103.91 141.93 Q2101.81 142.463 2099.86 143.527 L2099.86 139.592 Q2102.2 138.69 2104.4 138.25 Q2106.6 137.787 2108.68 137.787 Q2114.31 137.787 2117.08 140.703 Q2119.86 143.62 2119.86 149.546 Z" fill="#000000" fill-rule="nonzero" fill-opacity="1"></path><path clip-path="url(#clip500)" d="M2132.85 131.051 L2132.85 138.412 L2141.62 138.412 L2141.62 141.722 L2132.85 141.722 L2132.85 155.796 Q2132.85 158.967 2133.7 159.87 Q2134.58 160.773 2137.25 160.773 L2141.62 160.773 L2141.62 164.338 L2137.25 164.338 Q2132.31 164.338 2130.44 162.509 Q2128.56 160.657 2128.56 155.796 L2128.56 141.722 L2125.44 141.722 L2125.44 138.412 L2128.56 138.412 L2128.56 131.051 L2132.85 131.051 Z" fill="#000000" fill-rule="nonzero" fill-opacity="1"></path><path clip-path="url(#clip500)" d="M2159 151.305 Q2153.84 151.305 2151.85 152.486 Q2149.86 153.666 2149.86 156.514 Q2149.86 158.782 2151.34 160.125 Q2152.85 161.444 2155.42 161.444 Q2158.96 161.444 2161.09 158.944 Q2163.24 156.421 2163.24 152.254 L2163.24 151.305 L2159 151.305 M2167.5 149.546 L2167.5 164.338 L2163.24 164.338 L2163.24 160.402 Q2161.78 162.763 2159.61 163.898 Q2157.43 165.009 2154.28 165.009 Q2150.3 165.009 2147.94 162.787 Q2145.6 160.541 2145.6 156.791 Q2145.6 152.416 2148.52 150.194 Q2151.46 147.972 2157.27 147.972 L2163.24 147.972 L2163.24 147.555 Q2163.24 144.615 2161.3 143.018 Q2159.37 141.398 2155.88 141.398 Q2153.66 141.398 2151.55 141.93 Q2149.44 142.463 2147.5 143.527 L2147.5 139.592 Q2149.84 138.69 2152.04 138.25 Q2154.24 137.787 2156.32 137.787 Q2161.94 137.787 2164.72 140.703 Q2167.5 143.62 2167.5 149.546 Z" fill="#000000" fill-rule="nonzero" fill-opacity="1"></path><polyline clip-path="url(#clip500)" style="stroke:#e26f46; stroke-linecap:round; stroke-linejoin:round; stroke-width:4; stroke-opacity:1; fill:none" points="1897.58,198.898 2039.59,198.898 "></polyline>
<path clip-path="url(#clip500)" d="M2063.26 181.618 L2083.13 181.618 L2083.13 185.553 L2067.94 185.553 L2067.94 195.738 L2081.64 195.738 L2081.64 199.673 L2067.94 199.673 L2067.94 216.178 L2063.26 216.178 L2063.26 181.618 Z" fill="#000000" fill-rule="nonzero" fill-opacity="1"></path><path clip-path="url(#clip500)" d="M2098.7 193.238 Q2095.28 193.238 2093.29 195.923 Q2091.3 198.585 2091.3 203.238 Q2091.3 207.891 2093.26 210.576 Q2095.25 213.238 2098.7 213.238 Q2102.11 213.238 2104.1 210.553 Q2106.09 207.867 2106.09 203.238 Q2106.09 198.631 2104.1 195.946 Q2102.11 193.238 2098.7 193.238 M2098.7 189.627 Q2104.26 189.627 2107.43 193.238 Q2110.6 196.849 2110.6 203.238 Q2110.6 209.604 2107.43 213.238 Q2104.26 216.849 2098.7 216.849 Q2093.13 216.849 2089.95 213.238 Q2086.81 209.604 2086.81 203.238 Q2086.81 196.849 2089.95 193.238 Q2093.13 189.627 2098.7 189.627 Z" fill="#000000" fill-rule="nonzero" fill-opacity="1"></path><path clip-path="url(#clip500)" d="M2132.69 194.233 Q2131.97 193.817 2131.11 193.631 Q2130.28 193.423 2129.26 193.423 Q2125.65 193.423 2123.7 195.784 Q2121.78 198.122 2121.78 202.52 L2121.78 216.178 L2117.5 216.178 L2117.5 190.252 L2121.78 190.252 L2121.78 194.28 Q2123.12 191.918 2125.28 190.784 Q2127.43 189.627 2130.51 189.627 Q2130.95 189.627 2131.48 189.696 Q2132.01 189.743 2132.66 189.858 L2132.69 194.233 Z" fill="#000000" fill-rule="nonzero" fill-opacity="1"></path><path clip-path="url(#clip500)" d="M2158.29 202.15 L2158.29 204.233 L2138.7 204.233 Q2138.98 208.631 2141.34 210.946 Q2143.73 213.238 2147.96 213.238 Q2150.42 213.238 2152.71 212.636 Q2155.02 212.034 2157.29 210.83 L2157.29 214.858 Q2155 215.83 2152.59 216.34 Q2150.18 216.849 2147.71 216.849 Q2141.5 216.849 2137.87 213.238 Q2134.26 209.627 2134.26 203.469 Q2134.26 197.104 2137.69 193.377 Q2141.13 189.627 2146.97 189.627 Q2152.2 189.627 2155.23 193.006 Q2158.29 196.363 2158.29 202.15 M2154.03 200.9 Q2153.98 197.405 2152.06 195.321 Q2150.16 193.238 2147.01 193.238 Q2143.45 193.238 2141.3 195.252 Q2139.17 197.266 2138.84 200.923 L2154.03 200.9 Z" fill="#000000" fill-rule="nonzero" fill-opacity="1"></path><path clip-path="url(#clip500)" d="M2183.93 191.247 L2183.93 195.229 Q2182.13 194.233 2180.3 193.747 Q2178.49 193.238 2176.64 193.238 Q2172.5 193.238 2170.21 195.877 Q2167.92 198.492 2167.92 203.238 Q2167.92 207.983 2170.21 210.622 Q2172.5 213.238 2176.64 213.238 Q2178.49 213.238 2180.3 212.752 Q2182.13 212.242 2183.93 211.247 L2183.93 215.182 Q2182.15 216.016 2180.23 216.432 Q2178.33 216.849 2176.18 216.849 Q2170.32 216.849 2166.87 213.168 Q2163.43 209.488 2163.43 203.238 Q2163.43 196.895 2166.9 193.261 Q2170.39 189.627 2176.46 189.627 Q2178.43 189.627 2180.3 190.043 Q2182.18 190.437 2183.93 191.247 Z" fill="#000000" fill-rule="nonzero" fill-opacity="1"></path><path clip-path="url(#clip500)" d="M2203.12 203.145 Q2197.96 203.145 2195.97 204.326 Q2193.98 205.506 2193.98 208.354 Q2193.98 210.622 2195.46 211.965 Q2196.97 213.284 2199.54 213.284 Q2203.08 213.284 2205.21 210.784 Q2207.36 208.261 2207.36 204.094 L2207.36 203.145 L2203.12 203.145 M2211.62 201.386 L2211.62 216.178 L2207.36 216.178 L2207.36 212.242 Q2205.9 214.603 2203.73 215.738 Q2201.55 216.849 2198.4 216.849 Q2194.42 216.849 2192.06 214.627 Q2189.72 212.381 2189.72 208.631 Q2189.72 204.256 2192.64 202.034 Q2195.58 199.812 2201.39 199.812 L2207.36 199.812 L2207.36 199.395 Q2207.36 196.455 2205.42 194.858 Q2203.49 193.238 2200 193.238 Q2197.78 193.238 2195.67 193.77 Q2193.56 194.303 2191.62 195.367 L2191.62 191.432 Q2193.96 190.53 2196.16 190.09 Q2198.36 189.627 2200.44 189.627 Q2206.06 189.627 2208.84 192.543 Q2211.62 195.46 2211.62 201.386 Z" fill="#000000" fill-rule="nonzero" fill-opacity="1"></path><path clip-path="url(#clip500)" d="M2236.92 191.016 L2236.92 195.043 Q2235.12 194.117 2233.17 193.655 Q2231.23 193.192 2229.14 193.192 Q2225.97 193.192 2224.37 194.164 Q2222.8 195.136 2222.8 197.08 Q2222.8 198.562 2223.93 199.418 Q2225.07 200.252 2228.49 201.016 L2229.95 201.34 Q2234.49 202.312 2236.39 204.094 Q2238.31 205.854 2238.31 209.025 Q2238.31 212.636 2235.44 214.742 Q2232.59 216.849 2227.59 216.849 Q2225.51 216.849 2223.24 216.432 Q2220.99 216.039 2218.49 215.228 L2218.49 210.83 Q2220.86 212.057 2223.15 212.682 Q2225.44 213.284 2227.68 213.284 Q2230.69 213.284 2232.31 212.266 Q2233.93 211.224 2233.93 209.349 Q2233.93 207.613 2232.75 206.687 Q2231.6 205.761 2227.64 204.904 L2226.16 204.557 Q2222.2 203.724 2220.44 202.011 Q2218.68 200.275 2218.68 197.266 Q2218.68 193.608 2221.27 191.618 Q2223.87 189.627 2228.63 189.627 Q2230.99 189.627 2233.08 189.974 Q2235.16 190.321 2236.92 191.016 Z" fill="#000000" fill-rule="nonzero" fill-opacity="1"></path><path clip-path="url(#clip500)" d="M2249.3 182.891 L2249.3 190.252 L2258.08 190.252 L2258.08 193.562 L2249.3 193.562 L2249.3 207.636 Q2249.3 210.807 2250.16 211.71 Q2251.04 212.613 2253.7 212.613 L2258.08 212.613 L2258.08 216.178 L2253.7 216.178 Q2248.77 216.178 2246.9 214.349 Q2245.02 212.497 2245.02 207.636 L2245.02 193.562 L2241.9 193.562 L2241.9 190.252 L2245.02 190.252 L2245.02 182.891 L2249.3 182.891 Z" fill="#000000" fill-rule="nonzero" fill-opacity="1"></path></svg>